<?xml version="1.0" encoding="utf-8"?>
<!-- Generator: Adobe Illustrator 21.0.0, SVG Export Plug-In . SVG Version: 6.00 Build 0)  -->
<svg version="1.1" id="图层_1" xmlns="http://www.w3.org/2000/svg" xmlns:xlink="http://www.w3.org/1999/xlink" x="0px" y="0px"
	 viewBox="0 0 310 64" style="enable-background:new 0 0 310 64;" xml:space="preserve">
<style type="text/css">
	.st0{fill:#FFFFFF;}
	.st1{fill:#FCFCFC;}
	.st2{fill:#0075C1;}
</style>
<path class="st0" d="M121.5,36.8h-4.8c-2.8,4.1-7.5,5.2-9.7,5.4V44c3.2-0.2,8.6-1.4,12.1-4.5c3.3,3.1,8.3,4.4,12.1,4.5v-1.8
	C128.9,41.8,124.4,41,121.5,36.8 M128.3,51.6h-3.8c-0.4,1.2-1.4,3.5-2.6,4.3H121V50h8.7v-1.8H121v-2.3h8v-1.8h-20v1.8h8v2.3h-8.7V50
	h8.7v5.9h-0.9c-1.2-0.8-2.2-3.1-2.6-4.3h-3.8c0.6,2,2.1,3.8,3.1,4.3h-5.3v1.8h22.8v-1.8H125C126.1,55.4,127.7,53.6,128.3,51.6
	 M198.3,37h-3.7v16.2c0,3.1-0.5,3-2.1,3.1V58c4.7,0,5.8-1.1,5.8-4.7V37z"/>
<path class="st1" d="M200.8,45.6c-0.5,0.3-5.4,2.7-9.3,3.8v2.7c3.1-0.9,8-3.5,9.3-4.8V45.6z M191.5,40.7h9.3v1.8h-9.3V40.7z
	 M207.9,51.6c-1.5-1.3-2.6-3.7-2.6-5.2h5.5C210.8,47.9,209.5,50.3,207.9,51.6 M210,53.5c2.8-2.4,4.7-5.5,4.7-9h-4.5v-2.7h4.6V40
	h-4.6v-3.1h-3.8V40h-4.7v1.8h4.7v2.7h-4.6c0,3.7,1.7,6.6,4.1,8.8c-1.5,1.1-3.6,2.2-6.1,2.7v1.8c3-0.4,5.8-1.4,8.2-2.9
	c2.7,1.8,5.5,2.7,7.9,3v-1.8C213.4,55.6,211.6,54.7,210,53.5 M171.3,45.1h3.1v-1.8H171v-3.4c1.2-0.2,2.3-0.4,3.2-0.9v-2.2
	c-2.8,1.4-7.4,1.8-10.8,1.7v1.7c0,0,1.7,0.2,4,0.1v3h-4.2v1.8h4c-0.4,2.4-2.7,6.6-4.7,8.3v1.7c0,0,2.7-1.1,4.9-4v6.8h3.5v-8
	c1.1,1.7,3.3,3,4.2,3.3v-1.9C173.8,50.4,171.7,47.4,171.3,45.1 M185,37h-3.7v5.4c-0.9-1.1-2.1-3-2.5-4.3h-3.2c0.5,2,1.9,4,2.4,4.4
	h3.3v5.8c-1-1.3-2-3-2.5-4.3h-3.2c0.6,2.2,1.6,3.6,2.4,4.4h3.3v1.9l-5.3,0.8v2l5.3-0.8v5.4h3.7v-6l2.8-0.4v-2l-2.8,0.4V37z
	 M148.4,50.4c1.8-2.6,3.4-5.6,3.9-8.3h-3.2c-0.4,1.6-1.3,3.6-2.4,5.6c-1.1-2-2-4-2.4-5.6h-3.2c0.5,2.7,2.1,5.7,3.9,8.3
	c-1.6,2.4-3.4,4.5-5.1,5.9h2.9c1-0.6,2.4-1.9,3.9-3.7c1.5,1.8,2.9,3.2,3.9,3.7h2.9C151.8,55,149.9,52.8,148.4,50.4"/>
<path class="st0" d="M156.7,37.5h-19.9v11c0,3.3-0.2,6.2-2.2,8.1v1.8c3.8-1.4,5.9-4.4,5.9-9.6v-9.5h12.6v9.5c0,5.4,2.2,8.2,5.9,9.6
	v-1.8c-2-1.9-2.2-4.7-2.2-8.1v-11C156.8,37.5,156.7,37.5,156.7,37.5z M131.2,18h-5.4v7.7c-1.1,0.4-3,0.4-4.2,0.4
	c-2.7,0-9.2-2.3-9.3-8.5c0.2-7.2,6.3-9.3,10.4-9.2c4,0.1,6.4,1.4,6.4,1.4l1.3-2.6c-9.4-3.3-16.9-0.8-19.7,1.7
	c-2.5,2.3-3.9,5.1-3.8,8.7c0.1,2.5,1.2,5.9,3.8,7.8c2.6,2,6.1,3,10.5,3c3.7,0,7-0.4,9.9-1.3C131.1,27,131.2,18,131.2,18 M153.3,23.6
	c1.4-1.8,2.1-4.2,2.1-7.2c0-2.7-0.7-4.9-2.1-6.5c-1.4-1.6-3.9-2.4-6.3-2.4s-4.9,0.9-6.3,2.7c-1.4,1.8-2.1,4.2-2.1,7.2
	c0,2.7,0.7,4.9,2.1,6.4c1.4,1.6,3.9,2.4,6.3,2.4S151.9,25.3,153.3,23.6 M137.1,25.3c-2.5-2-3.8-4.6-3.8-7.9c0-3.6,1.3-6.5,3.8-8.7
	s5.8-3.3,10-3.3c4.1,0,7.5,1,10,3s3.8,4.6,3.8,7.9c0,3.6-1.3,6.5-3.8,8.7s-5.8,3.3-10,3.3S139.6,27.3,137.1,25.3 M162.9,28V5.7h5.4
	v20h9.4V28H162.9z M282.4,25.9c0,0,2.3,0.2,3.6,0.1c2.8,0,6.1-0.8,7.5-2.5c1.5-1.7,2.2-4.1,2.2-7.3c0-2.8-0.7-4.8-2.2-6.3
	c-1.5-1.4-4.8-2.2-7.6-2.2c-1.2,0-3.4,0.1-3.4,0.1v18.1C282.5,25.9,282.4,25.9,282.4,25.9z M277,5.4h11.7c4,0,7,1,9.1,2.8
	c2.1,1.9,3.2,4.6,3.2,8.1c0,3.8-1.2,6.8-3.6,8.8c-2.4,2.1-5.8,3.1-10.3,3.1H277V5.4 M211.5,27.9c0,0-7.4-21.5-7.7-22.1h5.7l5.4,15.6
	l6.2-15.6h3.5l5.8,14.7l5.9-14.7h3.4l-8.9,22.1h-3.2l-6.2-15.8L215,27.9C215,27.9,211.5,27.9,211.5,27.9z M242.2,5.8h5.4v22.1h-5.4
	V5.8z M254.5,27.9h-3.2V5.8h3.5L270.1,21V5.8h3.2v22.1h-3.4l-15.4-15.4L254.5,27.9z M185.2,25.9c0,0,2.3,0.2,3.6,0.1
	c2.8,0,6.1-0.8,7.5-2.5c1.5-1.7,2.2-4.1,2.2-7.3c0-2.8-0.7-4.8-2.2-6.3c-1.5-1.4-4.8-2.2-7.6-2.2c-1.2,0-3.4,0.1-3.4,0.1v18.1
	C185.3,25.9,185.2,25.9,185.2,25.9z M179.9,5.4h11.7c4,0,7,1,9.1,2.8c2.1,1.9,3.2,4.6,3.2,8.1c0,3.8-1.2,6.8-3.6,8.8
	c-2.4,2.1-5.8,3.1-10.3,3.1h-10.1L179.9,5.4"/>
<path class="st2" d="M88.1,11L97,0.8c0.2-0.2,0-0.5-0.2-0.5C28.2,2.2,1.7,22.1,1,30.9c-0.3,4.6,6.6,8.6,11.7,10.9
	c0.3,4.5,7.8,8.8,11.6,10.3c0.5,4.4,8.3,9.6,17.5,11.5c0.4,0.1,0.6-0.4,0.2-0.6c-6.8-3-8.6-6.1-8.6-9c0-6,20.5-10.5,36.3-11.4
	l8.1-9.4c0.2-0.2,0.1-0.5-0.2-0.5c-33.3,1.1-52.1,9.7-53.3,18c-1.9-1.1-3.3-2.8-3.3-4.8c0-6.5,18.4-17.9,57.4-18.7l8.5-9.6
	c0.2-0.2,0.1-0.6-0.2-0.6c-43.9,0.2-72.4,13.1-74,23.4c-0.8-0.5-3.2-2.5-3.2-5.1C9.6,26.1,40.8,12,88.1,11"/>
</svg>
