<svg id="图层_1" xmlns="http://www.w3.org/2000/svg" viewBox="0 0 310 64"><style>.st0{fill:#5e5c5c}</style><path class="st0" d="M121.5 36.8h-4.8c-2.8 4.1-7.5 5.2-9.7 5.4V44c3.2-.2 8.6-1.4 12.1-4.5 3.3 3.1 8.3 4.4 12.1 4.5v-1.8c-2.3-.4-6.8-1.2-9.7-5.4m6.8 14.8h-3.8c-.4 1.2-1.4 3.5-2.6 4.3h-.9V50h8.7v-1.8H121v-2.3h8v-1.8h-20v1.8h8v2.3h-8.7V50h8.7v5.9h-.9c-1.2-.8-2.2-3.1-2.6-4.3h-3.8c.6 2 2.1 3.8 3.1 4.3h-5.3v1.8h22.8v-1.8H125c1.1-.5 2.7-2.3 3.3-4.3m70-14.6h-3.7v16.2c0 3.1-.5 3-2.1 3.1V58c4.7 0 5.8-1.1 5.8-4.7V37z"/><path class="st0" d="M200.8 45.6c-.5.3-5.4 2.7-9.3 3.8v2.7c3.1-.9 8-3.5 9.3-4.8v-1.7zm-9.3-4.9h9.3v1.8h-9.3zm16.4 10.9c-1.5-1.3-2.6-3.7-2.6-5.2h5.5c0 1.5-1.3 3.9-2.9 5.2m2.1 1.9c2.8-2.4 4.7-5.5 4.7-9h-4.5v-2.7h4.6V40h-4.6v-3.1h-3.8V40h-4.7v1.8h4.7v2.7h-4.6c0 3.7 1.7 6.6 4.1 8.8-1.5 1.1-3.6 2.2-6.1 2.7v1.8c3-.4 5.8-1.4 8.2-2.9 2.7 1.8 5.5 2.7 7.9 3v-1.8c-2.5-.5-4.3-1.4-5.9-2.6m-38.7-8.4h3.1v-1.8H171v-3.4c1.2-.2 2.3-.4 3.2-.9v-2.2c-2.8 1.4-7.4 1.8-10.8 1.7v1.7s1.7.2 4 .1v3h-4.2v1.8h4c-.4 2.4-2.7 6.6-4.7 8.3v1.7s2.7-1.1 4.9-4v6.8h3.5v-8c1.1 1.7 3.3 3 4.2 3.3v-1.9c-1.3-.9-3.4-3.9-3.8-6.2M185 37h-3.7v5.4c-.9-1.1-2.1-3-2.5-4.3h-3.2c.5 2 1.9 4 2.4 4.4h3.3v5.8c-1-1.3-2-3-2.5-4.3h-3.2c.6 2.2 1.6 3.6 2.4 4.4h3.3v1.9l-5.3.8v2l5.3-.8v5.4h3.7v-6l2.8-.4v-2l-2.8.4V37zm-36.6 13.4c1.8-2.6 3.4-5.6 3.9-8.3h-3.2c-.4 1.6-1.3 3.6-2.4 5.6-1.1-2-2-4-2.4-5.6h-3.2c.5 2.7 2.1 5.7 3.9 8.3-1.6 2.4-3.4 4.5-5.1 5.9h2.9c1-.6 2.4-1.9 3.9-3.7 1.5 1.8 2.9 3.2 3.9 3.7h2.9c-1.7-1.3-3.6-3.5-5.1-5.9"/><path class="st0" d="M156.7 37.5h-19.9v11c0 3.3-.2 6.2-2.2 8.1v1.8c3.8-1.4 5.9-4.4 5.9-9.6v-9.5h12.6v9.5c0 5.4 2.2 8.2 5.9 9.6v-1.8c-2-1.9-2.2-4.7-2.2-8.1v-11h-.1zM131.2 18h-5.4v7.7c-1.1.4-3 .4-4.2.4-2.7 0-9.2-2.3-9.3-8.5.2-7.2 6.3-9.3 10.4-9.2 4 .1 6.4 1.4 6.4 1.4l1.3-2.6c-9.4-3.3-16.9-.8-19.7 1.7-2.5 2.3-3.9 5.1-3.8 8.7.1 2.5 1.2 5.9 3.8 7.8 2.6 2 6.1 3 10.5 3 3.7 0 7-.4 9.9-1.3 0-.1.1-9.1.1-9.1m22.1 5.6c1.4-1.8 2.1-4.2 2.1-7.2 0-2.7-.7-4.9-2.1-6.5-1.4-1.6-3.9-2.4-6.3-2.4s-4.9.9-6.3 2.7c-1.4 1.8-2.1 4.2-2.1 7.2 0 2.7.7 4.9 2.1 6.4 1.4 1.6 3.9 2.4 6.3 2.4s4.9-.9 6.3-2.6m-16.2 1.7c-2.5-2-3.8-4.6-3.8-7.9 0-3.6 1.3-6.5 3.8-8.7s5.8-3.3 10-3.3c4.1 0 7.5 1 10 3s3.8 4.6 3.8 7.9c0 3.6-1.3 6.5-3.8 8.7s-5.8 3.3-10 3.3-7.5-1-10-3m25.8 2.7V5.7h5.4v20h9.4V28zm119.5-2.1s2.3.2 3.6.1c2.8 0 6.1-.8 7.5-2.5 1.5-1.7 2.2-4.1 2.2-7.3 0-2.8-.7-4.8-2.2-6.3-1.5-1.4-4.8-2.2-7.6-2.2-1.2 0-3.4.1-3.4.1v18.1h-.1zM277 5.4h11.7c4 0 7 1 9.1 2.8 2.1 1.9 3.2 4.6 3.2 8.1 0 3.8-1.2 6.8-3.6 8.8-2.4 2.1-5.8 3.1-10.3 3.1H277V5.4m-65.5 22.5s-7.4-21.5-7.7-22.1h5.7l5.4 15.6 6.2-15.6h3.5l5.8 14.7 5.9-14.7h3.4l-8.9 22.1h-3.2l-6.2-15.8-6.4 15.8h-3.5zm30.7-22.1h5.4v22.1h-5.4zm12.3 22.1h-3.2V5.8h3.5L270.1 21V5.8h3.2v22.1h-3.4l-15.4-15.4zm-69.3-2s2.3.2 3.6.1c2.8 0 6.1-.8 7.5-2.5 1.5-1.7 2.2-4.1 2.2-7.3 0-2.8-.7-4.8-2.2-6.3-1.5-1.4-4.8-2.2-7.6-2.2-1.2 0-3.4.1-3.4.1v18.1h-.1zm-5.3-20.5h11.7c4 0 7 1 9.1 2.8 2.1 1.9 3.2 4.6 3.2 8.1 0 3.8-1.2 6.8-3.6 8.8-2.4 2.1-5.8 3.1-10.3 3.1h-10.1V5.4"/><path d="M88.1 11L97 .8c.2-.2 0-.5-.2-.5C28.2 2.2 1.7 22.1 1 30.9c-.3 4.6 6.6 8.6 11.7 10.9.3 4.5 7.8 8.8 11.6 10.3.5 4.4 8.3 9.6 17.5 11.5.4.1.6-.4.2-.6-6.8-3-8.6-6.1-8.6-9 0-6 20.5-10.5 36.3-11.4l8.1-9.4c.2-.2.1-.5-.2-.5-33.3 1.1-52.1 9.7-53.3 18-1.9-1.1-3.3-2.8-3.3-4.8 0-6.5 18.4-17.9 57.4-18.7l8.5-9.6c.2-.2.1-.6-.2-.6-43.9.2-72.4 13.1-74 23.4-.8-.5-3.2-2.5-3.2-5.1C9.6 26.1 40.8 12 88.1 11" fill="#0075c1"/></svg>